<svg enable-background="new 0 0 128 128" viewBox="0 0 128 128" xmlns="http://www.w3.org/2000/svg" xmlns:xlink="http://www.w3.org/1999/xlink"><linearGradient id="a" gradientUnits="userSpaceOnUse" x1="42" x2="42" y1="53.068" y2="75.801"><stop offset="0" stop-color="#ffe57f"/><stop offset=".1113" stop-color="#ffe376"/><stop offset=".2962" stop-color="#ffdc5c"/><stop offset=".5317" stop-color="#ffd133"/><stop offset=".7799" stop-color="#ffc400"/><stop offset="1" stop-color="#ffc400"/></linearGradient><linearGradient id="b" gradientUnits="userSpaceOnUse" x1="64" x2="64" y1="56.131" y2="80.325"><stop offset="0" stop-color="#ffe57f"/><stop offset=".5031" stop-color="#ffd43d"/><stop offset="1" stop-color="#ffc400"/></linearGradient><linearGradient id="c" gradientUnits="userSpaceOnUse" x1="64" x2="64" y1="75.801" y2="62.42"><stop offset="0" stop-color="#ecaa63"/><stop offset=".7878" stop-color="#ecaa63" stop-opacity="0"/></linearGradient><radialGradient id="d" cx="63.667" cy="77.333" gradientUnits="userSpaceOnUse" r="75.426"><stop offset="0" stop-color="#ffd740"/><stop offset=".1661" stop-color="#ffd33a"/><stop offset=".3886" stop-color="#ffc729"/><stop offset=".6419" stop-color="#ffb40d"/><stop offset=".7432" stop-color="#ffab00"/><stop offset="1" stop-color="#ffab00"/></radialGradient><radialGradient id="e" cx="22.26" cy="13.965" gradientUnits="userSpaceOnUse" r="23.943"><stop offset="0" stop-color="#ff0"/><stop offset="1" stop-color="#ffea00"/></radialGradient><radialGradient id="f" cx="113.88" cy="22.5" gradientUnits="userSpaceOnUse" r="38.758"><stop offset="0" stop-color="#9ccc65"/><stop offset=".0078989" stop-color="#9bcb64"/><stop offset=".5276" stop-color="#76ab44"/><stop offset=".8023" stop-color="#689f38"/></radialGradient><linearGradient id="g" gradientUnits="userSpaceOnUse" x1="94.507" x2="109.01" y1="53.893" y2="43.143"><stop offset="0" stop-color="#33691e"/><stop offset="1" stop-color="#33691e" stop-opacity="0"/></linearGradient><linearGradient id="h"><stop offset="0" stop-color="#9ccc65"/><stop offset=".9952" stop-color="#689f38"/></linearGradient><radialGradient id="i" cx="91.478" cy="6.125" gradientUnits="userSpaceOnUse" r="85.799" xlink:href="#h"/><radialGradient id="j" cx="68.625" cy="26.625" gradientUnits="userSpaceOnUse" r="48.84" xlink:href="#h"/><path d="m45.97 52.55c-.96-.55-2.05-.69-3.08-.42-.78 1.52-.43 3.71 4.79 6.06 9.69 4.37 2.44 5.14-.75 6.55s-8.12 4.37-1.25 5.64c6.03 1.11 26.65.05 34.31-1.75v-3.75c-18-3.9-29.63-9.82-34.02-12.33z" fill="#ffab00"/><path d="m45.69 70.38c-6.88-1.27-1.94-4.23 1.25-5.64s10.44-2.18.75-6.55c-5.22-2.36-5.58-4.55-4.79-6.06-.32.08-.64.2-.94.36-8.29 4.37-19.99 8.18-31.96 11.33-3.53.93-6 4.09-6 7.74v15.88h76v-18.8c-7.66 1.8-28.28 2.86-34.31 1.74z" fill="url(#a)"/><path d="m43.92 55c.19 0 .38.05.56.16 4.13 2.36 15.33 8.11 32.52 12.13v17.14h-70v-12.87c0-2.27 1.55-4.26 3.76-4.84 14.09-3.7 25.06-7.6 32.6-11.58.09-.05.18-.08.29-.11.08-.02.18-.03.27-.03m0-3c-.34 0-.69.04-1.02.13-.32.08-.64.2-.94.36-8.29 4.37-19.99 8.18-31.96 11.33-3.53.93-6 4.09-6 7.74v15.88h76v-22.55c-18.01-3.91-29.64-9.83-34.03-12.33-.65-.38-1.35-.56-2.05-.56z" fill="#424242" opacity=".2"/><path d="m91.69 57.5c9.69 3.88 2.44 4.56-.75 5.81s-8.12 3.87-1.25 5c6.03.99 26.65 9.29 34.31 7.69v-6.09c0-3.74-2.59-6.95-6.23-7.8-14.48-3.37-23.94-7.66-27.8-9.62-.96-.49-2.05-.61-3.08-.38-.78 1.35-.43 3.3 4.8 5.39z" fill="#ffab00"/><path d="m89.69 68.31c-6.88-1.12-1.94-3.75 1.25-5s10.44-1.94.75-5.81c-5.22-2.09-5.58-4.03-4.79-5.38-.32.07-.64.18-.94.32-25.19 11.78-81.96 18.99-81.96 18.99v12h120v-7.43c-7.66 1.6-28.28-6.7-34.31-7.69z" fill="url(#b)"/><path d="m117.77 62.11c-14.48-3.37-23.94-7.66-27.8-9.62-.96-.49-2.05-.61-3.08-.38-.32.07-.64.18-.94.32-25.18 11.79-81.95 19-81.95 19v12h120v-7.43-6.09c0-3.74-2.59-6.95-6.23-7.8z" fill="url(#c)"/><path d="m87.92 55c.24 0 .48.06.7.17 4.41 2.24 13.98 6.5 28.47 9.87 2.3.54 3.91 2.54 3.91 4.88v10.51h-114v-6.37c11.61-1.59 57.72-8.38 80.23-18.91.1-.05.21-.08.33-.11s.24-.04.36-.04m0-3c-.34 0-.69.04-1.02.12-.32.07-.64.18-.94.32-25.19 11.78-81.96 18.99-81.96 18.99v12h120v-13.52c0-3.74-2.59-6.95-6.23-7.8-14.48-3.37-23.94-7.66-27.8-9.62-.65-.33-1.35-.49-2.05-.49z" fill="#424242" opacity=".2"/><path d="m4 72h120v52h-120z" fill="url(#d)"/><ellipse cx="22.9" cy="78.86" fill="#ffb300" rx="1.49" ry=".94"/><ellipse cx="12.09" cy="98.39" fill="#ffb300" rx="1.49" ry=".94"/><ellipse cx="49.33" cy="92.56" fill="#ffb300" rx="1.49" ry=".94"/><ellipse cx="28.55" cy="82.42" fill="#ffd54f" rx=".94" ry=".59"/><ellipse cx="46.56" cy="78.48" fill="#ffd54f" rx=".94" ry=".59"/><ellipse cx="54.24" cy="80.68" fill="#ffc107" rx="1.49" ry=".94"/><ellipse cx="74.65" cy="82.22" fill="#ffc107" rx="1.49" ry=".94"/><ellipse cx="12.74" cy="76.11" fill="#ffd54f" rx=".94" ry=".59"/><ellipse cx="11.5" cy="88.49" fill="#ffc107" rx="1.35" ry=".85"/><ellipse cx="20.17" cy="94.06" fill="#ffc107" rx=".94" ry=".59"/><ellipse cx="33.91" cy="80.5" fill="#ffc107" rx="1.25" ry=".79"/><ellipse cx="84.49" cy="77.08" fill="#ffc107" rx="1.25" ry=".79"/><ellipse cx="28.89" cy="94.76" fill="#ffb300" rx="1.49" ry=".94"/><ellipse cx="53.25" cy="98.1" fill="#ffb300" rx="1.49" ry=".94"/><ellipse cx="63.95" cy="106.36" fill="#ffb300" rx="1.49" ry=".94"/><ellipse cx="58.89" cy="91.83" fill="#ffd54f" rx=".94" ry=".59"/><ellipse cx="39.02" cy="89.41" fill="#ffb300" rx="1.91" ry="1.2"/><ellipse cx="67.77" cy="90.11" fill="#ffc107" rx="1.49" ry=".94"/><ellipse cx="67.84" cy="103.81" fill="#ffc107" rx="1.49" ry=".94"/><ellipse cx="72.76" cy="116.81" fill="#ffd54f" rx=".94" ry=".59"/><ellipse cx="37.97" cy="93.48" fill="#ffc107" rx="1.35" ry=".85"/><ellipse cx="44.79" cy="104.16" fill="#ffc107" rx=".94" ry=".59"/><ellipse cx="24.18" cy="99.13" fill="#ffc107" rx="1.25" ry=".79"/><ellipse cx="58.45" cy="110.85" fill="#ffc107" rx="1.25" ry=".79"/><ellipse cx="31.15" cy="111.31" fill="#ffb300" rx="1.49" ry=".94"/><ellipse cx="43.52" cy="116.73" fill="#ffb300" rx="1.49" ry=".94"/><ellipse cx="35.93" cy="99.03" fill="#ffd54f" rx=".94" ry=".59"/><ellipse cx="43.45" cy="111.16" fill="#ffd54f" rx=".94" ry=".59"/><ellipse cx="52.97" cy="117.16" fill="#ffd54f" rx=".94" ry=".59"/><ellipse cx="38.24" cy="106.02" fill="#ffb300" rx="1.76" ry="1.11"/><ellipse cx="60.64" cy="119.36" fill="#ffc107" rx="1.49" ry=".94"/><ellipse cx="27.63" cy="104.85" fill="#ffd54f" rx=".94" ry=".59"/><ellipse cx="23" cy="112.67" fill="#ffc107" rx="2.11" ry="1.33"/><ellipse cx="7.94" cy="100.42" fill="#ffc107" rx=".94" ry=".59"/><ellipse cx="34.63" cy="100.39" fill="#ffc107" rx="1.25" ry=".79"/><ellipse cx="18.92" cy="117.67" fill="#ffb300" rx="1.49" ry=".94"/><ellipse cx="10.45" cy="113.96" fill="#ffd54f" rx=".94" ry=".59"/><ellipse cx="32.33" cy="119.33" fill="#ffc107" rx="1.35" ry=".85"/><ellipse cx="20" cy="85.67" fill="#ffc107" rx=".94" ry=".59"/><ellipse cx="93.03" cy="76.41" fill="#ffb300" rx="1.49" ry=".94"/><ellipse cx="61.53" cy="83.78" fill="#ffb300" rx="1.49" ry=".94"/><ellipse cx="112.49" cy="78.94" fill="#ffb300" rx="1.49" ry=".94"/><ellipse cx="105.32" cy="76.26" fill="#ffd54f" rx=".94" ry=".59"/><ellipse cx="120.65" cy="82.8" fill="#ffc107" rx="1.49" ry=".94"/><ellipse cx="88.27" cy="82.32" fill="#ffc107" rx="1.35" ry=".85"/><ellipse cx="96.95" cy="87.89" fill="#ffc107" rx=".94" ry=".59"/><ellipse cx="108.61" cy="94.02" fill="#ffc107" rx="1.25" ry=".79"/><ellipse cx="116.45" cy="98.93" fill="#ffb300" rx="1.49" ry=".94"/><ellipse cx="95.63" cy="115.27" fill="#ffb300" rx="1.49" ry=".94"/><ellipse cx="104.38" cy="108.17" fill="#ffb300" rx="1.49" ry=".94"/><ellipse cx="88.03" cy="97.57" fill="#ffd54f" rx=".94" ry=".59"/><ellipse cx="95.55" cy="109.7" fill="#ffd54f" rx=".94" ry=".59"/><ellipse cx="100.8" cy="96.91" fill="#ffd54f" rx="1.88" ry="1.18"/><ellipse cx="73.95" cy="98.67" fill="#ffd54f" rx="1.88" ry="1.18"/><ellipse cx="89.76" cy="103.93" fill="#ffb300" rx="1.17" ry=".74"/><ellipse cx="114.79" cy="89.64" fill="#ffc107" rx="1.49" ry=".94"/><ellipse cx="110.88" cy="116.23" fill="#ffc107" rx="1.49" ry=".94"/><ellipse cx="87.17" cy="121.33" fill="#ffc107" rx=".94" ry=".59"/><path d="m121 75v46h-114v-46zm3-3h-120v52h120z" fill="#424242" opacity=".2"/><path d="m22 36c-7.72 0-14-6.28-14-14s6.28-14 14-14 14 6.28 14 14-6.28 14-14 14z" fill="url(#e)"/><path d="m22 12c5.51 0 10 4.49 10 10s-4.49 10-10 10-10-4.49-10-10 4.49-10 10-10m0-8c-9.94 0-18 8.06-18 18s8.06 18 18 18 18-8.06 18-18-8.06-18-18-18z" fill="#ffff8d"/><path d="m114.09 22.33c-4.26 0-7.65 3.17-7.65 7.15v14.13c0 2.93-4.03 6.8-7.13 6.9l.18 13.21c11.53-.1 22.25-9.31 22.25-20.11v-14.13c0-3.98-3.39-7.15-7.65-7.15z" fill="url(#f)"/><path d="m114.09 25.33c2.61 0 4.65 1.82 4.65 4.15v14.13c0 7.98-7.45 15.39-16.29 16.85l-.11-7.63c3.77-1.57 7.1-5.59 7.1-9.23v-14.12c-.01-2.33 2.04-4.15 4.65-4.15m0-3c-4.26 0-7.65 3.17-7.65 7.15v14.13c0 2.93-4.03 6.8-7.13 6.9l.18 13.21c11.53-.1 22.25-9.31 22.25-20.11v-14.13c0-3.98-3.39-7.15-7.65-7.15z" fill="#424242" opacity=".2"/><path d="m112.6 26.77c-1.84.49-1.13 8.09-1.1 10.43.06 4.04-.46 7.79-1.73 11.08-1.27 3.3-4.47 7.32-7.92 7.78" style="fill:none;stroke:#558b2f;stroke-linecap:round;stroke-linejoin:round;stroke-miterlimit:10;stroke-width:1.5131"/><path d="m116.51 27.37c.91 6.58 1.13 8.15.33 13.32-.65 4.21-1.88 8.25-4.37 11.67s-6.77 5.91-10.8 7.04" style="fill:none;stroke:#558b2f;stroke-linecap:round;stroke-linejoin:round;stroke-miterlimit:10;stroke-width:1.5131"/><path d="m112.88 20.29 1.35 2h-.45l1.38-1.99-.93 2.24-.45-.01z" fill="#33691e"/><path d="m105.83 24.44c.41.05.79.15 1.17.26.38.1.75.25 1.12.39l-.35.29c-.07-.4-.14-.79-.17-1.2-.04-.4-.06-.81-.03-1.23.18.38.31.76.42 1.15.12.39.21.78.29 1.18l-.35.29c-.36-.15-.73-.31-1.08-.5-.34-.19-.69-.38-1.02-.63z" fill="#33691e"/><path d="m123.06 26.82-1.23 2.07-.18-.41 2.35.45-2.39.07-.19-.41z" fill="#33691e"/><path d="m123.53 36.6-1.73 1.66-.07-.44 2.14 1.08-2.32-.6-.07-.45z" fill="#33691e"/><path d="m123.57 44.58-2 1.31.02-.45 1.91 1.46-2.18-1.02.02-.45z" fill="#33691e"/><path d="m114.09 22.33c-4.26 0-7.65 3.17-7.65 7.15v14.13c0 2.93-4.03 6.8-7.13 6.9l.18 13.21c11.53-.1 22.25-9.31 22.25-20.11v-14.13c0-3.98-3.39-7.15-7.65-7.15z" fill="url(#g)" opacity=".5"/><path d="m22 7c8.27 0 15 6.73 15 15s-6.73 15-15 15-15-6.73-15-15 6.73-15 15-15m0-3c-9.94 0-18 8.06-18 18s8.06 18 18 18 18-8.06 18-18-8.06-18-18-18z" fill="#424242" opacity=".2"/><path d="m91.43 5.93c-6.32 0-11.3 5.01-11.3 11.25l1.4 74.82h20.39l.91-74.82c-.01-6.15-5.08-11.25-11.4-11.25z" fill="url(#i)"/><path d="m91.43 8.93c4.63 0 8.39 3.7 8.39 8.22l-.87 71.85h-14.48l-1.34-71.84c.02-4.62 3.66-8.23 8.3-8.23m0-3c-6.32 0-11.3 5.01-11.3 11.25l1.4 74.82h20.39l.91-74.82c-.01-6.15-5.08-11.25-11.4-11.25z" fill="#424242" opacity=".2"/><path d="m87.56 11.39c-3.64 2.85-2.42 14.11-2.37 19.59.2 19.3 1.44 37.05 1.64 56.36" style="fill:none;stroke:#689f38;stroke-linecap:round;stroke-linejoin:round;stroke-miterlimit:10;stroke-width:1.5131"/><path d="m92.75 10.23c.69 2.36.4 3.42.42 5.89.08 13.95.19 27.9.33 41.85.1 9.8.71 21.21.62 30.24" style="fill:none;stroke:#689f38;stroke-linecap:round;stroke-linejoin:round;stroke-miterlimit:10;stroke-width:1.5131"/><path d="m97.29 16c-.23 13.95-.43 27.9-.59 41.85-.12 9.8.24 21.22-.05 30.25" style="fill:none;stroke:#689f38;stroke-linecap:round;stroke-linejoin:round;stroke-miterlimit:10;stroke-width:1.5131"/><g fill="#33691e"><path d="m77.96 23.71c.4-.06.8-.07 1.2-.07.4-.01.79.03 1.18.06l-.26.37c-.18-.36-.35-.73-.48-1.11-.14-.38-.28-.76-.36-1.17.28.31.5.65.71.99.22.34.41.7.59 1.06l-.26.37c-.39-.05-.78-.1-1.17-.18-.38-.08-.77-.17-1.15-.32z"/><path d="m78.7 36.27c.4-.06.8-.07 1.2-.07.4-.01.79.03 1.18.06l-.26.37c-.18-.36-.35-.73-.48-1.11-.14-.38-.28-.76-.36-1.17.28.31.5.65.71.99.22.34.41.7.59 1.06l-.26.37c-.39-.05-.78-.1-1.17-.18-.38-.08-.77-.18-1.15-.32z"/><path d="m79.06 53.8c.4-.06.8-.07 1.2-.07.4-.01.79.03 1.18.06l-.26.37c-.18-.36-.35-.73-.48-1.11-.14-.38-.28-.76-.36-1.17.28.31.5.65.71.99.22.34.41.7.59 1.06l-.26.37c-.39-.05-.78-.1-1.17-.18-.38-.08-.77-.17-1.15-.32z"/><path d="m83.92 55.47c.4-.06.8-.07 1.2-.07.4-.01.79.03 1.18.06l-.26.37c-.18-.36-.35-.73-.48-1.11-.14-.38-.28-.76-.36-1.17.28.31.5.65.71.99.22.34.41.7.59 1.06l-.26.37c-.39-.05-.78-.1-1.17-.18-.38-.08-.77-.17-1.15-.32z"/><path d="m84.58 81.4c.4-.06.8-.07 1.2-.07.4-.01.79.03 1.18.06l-.26.37c-.18-.36-.35-.73-.48-1.11-.14-.38-.28-.76-.36-1.17.28.31.5.65.71.99.22.34.41.7.59 1.06l-.26.37c-.39-.05-.78-.1-1.17-.18-.38-.08-.76-.17-1.15-.32z"/><path d="m83.75 36.29c.4-.07.8-.09 1.2-.1.4-.02.79.01 1.19.04l-.25.37c-.18-.36-.36-.72-.51-1.09-.15-.38-.29-.75-.38-1.16.28.31.51.64.74.98.23.33.42.69.61 1.04l-.25.38c-.39-.04-.79-.08-1.18-.16s-.78-.16-1.17-.3z"/><path d="m81.13 9.47c.4-.06.8-.07 1.2-.07.4-.01.79.03 1.18.06l-.26.37c-.18-.36-.35-.73-.48-1.11-.14-.38-.28-.76-.36-1.17.28.31.5.65.71.99.22.34.41.7.59 1.06l-.26.37c-.39-.05-.78-.1-1.17-.18-.38-.08-.77-.17-1.15-.32z"/><path d="m86.71 4.54c.34.23.64.5.94.77s.57.56.84.86l-.44.1c.11-.39.22-.77.37-1.15s.3-.75.51-1.11c0 .42-.06.82-.13 1.22-.06.4-.16.79-.26 1.18l-.44.09c-.26-.3-.52-.61-.74-.94-.24-.32-.46-.65-.65-1.02z"/><path d="m96.69 4.89.41 2.39-.41-.19 2.07-1.23-1.76 1.64-.42-.19z"/><path d="m103.76 32.87-1.22 2.07-.19-.41 2.36.45-2.4.07-.18-.41z"/><path d="m97.82 68.43-1.23 2.08-.18-.41 2.35.44-2.39.07-.19-.41z"/><path d="m103.4 65.84-1.22 2.07-.19-.4 2.35.44-2.39.07-.19-.41z"/><path d="m103.86 75.53-1.87 1.5-.03-.44 2.05 1.25-2.27-.79-.03-.45z"/><path d="m103.86 83.19-1.87 1.5-.03-.45 2.05 1.26-2.27-.79-.03-.45z"/><path d="m103.76 41.26-1.22 2.08-.19-.41 2.36.44-2.4.07-.18-.41z"/><path d="m97.44 23.46-.08 2.42-.36-.27 2.27-.77-2.05 1.24-.37-.27z"/></g><path d="m85.74 64.46c-2.74-.22-10.13-1.2-10.13-9.53v-21.19c0-3.98-3.11-7.15-7.03-7.15s-7.03 3.17-7.03 7.15v21.1c0 14.72 11.18 21.95 24.19 21.95z" fill="url(#j)"/><path d="m68.58 29.59c2.26 0 4.03 1.82 4.03 4.15v21.19c0 6.43 3.65 10.74 10.13 12.12v6.59c-4.76-.47-8.97-2.07-12.07-4.63-4.06-3.35-6.12-8.13-6.12-14.18v-21.1c0-2.32 1.77-4.14 4.03-4.14m0-3c-3.92 0-7.03 3.17-7.03 7.15v21.1c0 14.72 11.18 21.95 24.19 21.95v-12.33c-2.74-.22-10.13-1.2-10.13-9.53v-21.19c0-3.98-3.11-7.15-7.03-7.15z" fill="#424242" opacity=".2"/><path d="m65.99 31.91c.15 6.55.09 13.11-.17 19.66-.08 2.04-.18 4.11.27 6.1.31 1.38.88 2.69 1.51 3.96.73 1.46 1.55 2.88 2.58 4.15 1.31 1.62 2.95 2.98 4.8 3.98 2.1 1.14 4.46 1.81 6.85 1.94" style="fill:none;stroke:#689f38;stroke-linecap:round;stroke-linejoin:round;stroke-miterlimit:10;stroke-width:1.5131"/><path d="m60.01 32.32c.4-.06.8-.07 1.2-.07.4-.01.79.03 1.18.06l-.26.37c-.18-.36-.35-.73-.48-1.11-.14-.38-.28-.76-.36-1.17.28.31.5.65.71.99.22.34.41.7.59 1.06l-.26.37c-.39-.05-.78-.1-1.17-.18-.38-.09-.77-.18-1.15-.32z" fill="#33691e"/><path d="m69.05 25.02.78 2.3-.44-.12 1.85-1.55-1.48 1.9-.43-.12z" fill="#33691e"/><path d="m75.99 30.1-.81 2.28-.26-.37 2.39-.02-2.33.53-.27-.36z" fill="#33691e"/><path d="m77.06 47.98-1.55 1.83-.12-.44 2.24.85-2.37-.35-.11-.43z" fill="#33691e"/><path d="m63.41 38.25c.4-.06.8-.07 1.2-.07.4-.01.79.03 1.18.06l-.26.37c-.18-.36-.35-.73-.48-1.11-.14-.38-.28-.76-.36-1.17.28.31.5.65.71.99.22.34.41.7.59 1.06l-.26.37c-.39-.05-.78-.1-1.17-.18-.38-.09-.77-.18-1.15-.32z" fill="#33691e"/><path d="m59.54 45.62c.36-.18.74-.32 1.12-.44.38-.13.76-.22 1.15-.3l-.13.43c-.27-.29-.55-.58-.79-.9-.25-.32-.49-.64-.69-1 .36.21.67.47.98.73s.59.54.87.82l-.13.43c-.39.08-.78.15-1.17.19-.41.02-.8.06-1.21.04z" fill="#33691e"/><path d="m62.97 49.89c.4-.06.8-.07 1.2-.07.4-.01.79.03 1.18.06l-.26.37c-.18-.36-.35-.73-.48-1.11-.14-.38-.28-.76-.36-1.17.28.31.5.65.71.99.22.34.41.7.59 1.06l-.26.37c-.39-.05-.78-.1-1.17-.18-.38-.08-.77-.17-1.15-.32z" fill="#33691e"/><path d="m59.61 57.48c.35-.2.72-.36 1.09-.5.37-.15.75-.26 1.13-.37l-.11.44c-.29-.28-.58-.55-.84-.86-.26-.3-.52-.61-.74-.96.37.19.69.43 1.01.67s.62.51.92.78l-.11.44c-.38.1-.77.19-1.16.25-.39.05-.78.1-1.19.11z" fill="#33691e"/><path d="m86 69.75c.4-.06.8-.07 1.2-.07.4-.01.79.03 1.18.06l-.26.37c-.18-.36-.35-.73-.48-1.11-.14-.38-.28-.76-.36-1.17.28.31.5.65.71.99.22.34.41.7.59 1.06l-.26.37c-.39-.05-.78-.1-1.17-.18-.38-.08-.77-.17-1.15-.32z" fill="#33691e"/></svg>